<?xml version="1.0" encoding="utf-8"?>
<!-- Generator: Adobe Illustrator 16.0.0, SVG Export Plug-In . SVG Version: 6.00 Build 0)  -->
<!DOCTYPE svg PUBLIC "-//W3C//DTD SVG 1.1//EN" "http://www.w3.org/Graphics/SVG/1.1/DTD/svg11.dtd">
<svg version="1.1" xmlns="http://www.w3.org/2000/svg" xmlns:xlink="http://www.w3.org/1999/xlink" x="0px" y="0px" width="1980px"
	 height="1080px" viewBox="0 0 1980 1080" enable-background="new 0 0 1980 1080" xml:space="preserve">
<g id="Слой_1" display="none">
	
		<image display="inline" overflow="visible" width="1920" height="1080" xlink:href="C:\Users\Gladiolus\Desktop\Untitled-2.jpg"  transform="matrix(1 0 0 1 30 0)">
	</image>
</g>
<g id="Слой_2" display="none">
	
		<image display="inline" overflow="visible" width="1980" height="1080" xlink:href="Разборка/bg_header.jpg"  transform="matrix(1 0 0 1 -4.882813e-004 0)">
	</image>
</g>
<g id="Слой_3" display="none">
	
		<path display="inline" fill="none" stroke="#FFFFFF" stroke-width="2" stroke-linecap="round" stroke-linejoin="round" stroke-miterlimit="10" d="
		M599.64,468.825v445.5c0,0-1.5,16.5,7,25.5s22.5,7.5,22.5,7.5h95"/>
	
		<line display="inline" fill="none" stroke="#FFFFFF" stroke-width="2" stroke-linecap="round" stroke-linejoin="round" stroke-miterlimit="10" x1="1344.64" y1="469.825" x2="1344.64" y2="912.825"/>
	
		<path display="inline" fill="none" stroke="#FFFFFF" stroke-width="2" stroke-linecap="round" stroke-linejoin="round" stroke-miterlimit="10" d="
		M870.64,758.325h199.5c0,0,4.97-0.474,7.994,2.988c2.923,3.346,2.506,7.512,2.506,7.512v141"/>
	
		<path display="inline" fill="none" stroke="#FFFFFF" stroke-width="2" stroke-linecap="round" stroke-linejoin="round" stroke-miterlimit="10" d="
		M1046.807,681.326c0,0-0.167-2.834-4.167-2.834s-179.663,0-182.663,0c-4.333,0-4.333,3.834-4.333,3.834v30.336"/>
	
		<path display="inline" fill="none" stroke="#FFFFFF" stroke-width="2" stroke-linecap="round" stroke-linejoin="round" stroke-miterlimit="10" d="
		M759.978,633.657h28.667c0,0,3.668,0,3.667-4.166c-0.001-3.834,0-24.834,0-24.834s0.166-3.666-3.667-3.666"/>
	
		<path display="inline" fill="none" stroke="#FFFFFF" stroke-width="2" stroke-linecap="round" stroke-linejoin="round" stroke-miterlimit="10" d="
		M786.311,590.495v-23.834c0,0-0.833-4.166,3.667-4.166s28.333,0,28.333,0s3.167-0.168,3.167,3.666"/>
	
		<path display="inline" fill="none" stroke="#FFFFFF" stroke-width="2" stroke-linecap="round" stroke-linejoin="round" stroke-miterlimit="10" d="
		M797.311,629.995c0,0,0,3.664,3.667,3.662c2.333-0.001,26.833,0,26.833,0"/>
	
		<path display="inline" fill="none" stroke="#FFFFFF" stroke-width="2" stroke-linecap="round" stroke-linejoin="round" stroke-miterlimit="10" d="
		M835.978,604.495c0,0,0-3.505,5.167-3.504c4.667,0.001,26.333,0,26.333,0s4-0.162,4,3.504s0,25.5,0,25.5s0.203,3.662-3.333,3.662"
		/>
	
		<path display="inline" fill="none" stroke="#FFFFFF" stroke-width="2" stroke-linecap="round" stroke-linejoin="round" stroke-miterlimit="10" d="
		M856.474,226.992H557.14c0,0-8.946-0.522-13.75,5.667c-4.333,5.583-0.675,15.832-0.675,15.832l6.425,19.5"/>
	
		<polyline display="inline" fill="none" stroke="#FFFFFF" stroke-width="2" stroke-linecap="round" stroke-linejoin="round" stroke-miterlimit="10" points="
		754.141,245.486 1370.808,245.486 1367.141,260.992 	"/>
	
		<line display="inline" fill="none" stroke="#FFFFFF" stroke-width="2" stroke-linecap="round" stroke-linejoin="round" stroke-miterlimit="10" x1="1074.14" y1="422.325" x2="1320.14" y2="422.325"/>
	
		<path display="inline" fill="none" stroke="#FFFFFF" stroke-width="2" stroke-linecap="round" stroke-linejoin="round" stroke-miterlimit="10" d="
		M1630.171,476.48c0,49.982-40.518,90.5-90.5,90.5c-49.981,0-90.5-40.518-90.5-90.5s40.519-90.5,90.5-90.5
		c4.465,0,8.854,0.324,13.145,0.948"/>
	
		<line display="inline" fill="none" stroke="#FFFFFF" stroke-width="2" stroke-linecap="round" stroke-linejoin="round" stroke-miterlimit="10" x1="237.14" y1="619.325" x2="403.474" y2="619.325"/>
	
		<line display="inline" fill="none" stroke="#FFFFFF" stroke-width="2" stroke-linecap="round" stroke-linejoin="round" stroke-miterlimit="10" x1="427.807" y1="635.992" x2="427.807" y2="741.992"/>
	
		<path display="inline" fill="none" stroke="#FFFFFF" stroke-width="2" stroke-linecap="round" stroke-linejoin="round" stroke-miterlimit="10" d="
		M181.474,911.325v19.334c0,0,0,5,2.333,5s34.333,0,34.333,0"/>
	
		<polyline display="inline" fill="none" stroke="#FFFFFF" stroke-width="2" stroke-linecap="round" stroke-linejoin="round" stroke-miterlimit="10" points="
		199.807,770.326 205.14,770.326 205.14,781.659 	"/>
	
		<polyline display="inline" fill="none" stroke="#FFFFFF" stroke-width="2" stroke-linecap="round" stroke-linejoin="round" stroke-miterlimit="10" points="
		199.807,705.991 205.14,705.991 205.14,695.324 	"/>
	
		<path display="inline" fill="none" stroke="#FFFFFF" stroke-width="2" stroke-linecap="round" stroke-linejoin="round" stroke-miterlimit="10" d="
		M521.474,645.991h-7.333v17.333l-3.333,5.333v30.667c0,0-1.667,2.333-1.667,5s2,4.333,2,4.333v190l4.167,6v4.667l1.333,1.501v4.5
		h3.75"/>
	
		<line display="inline" fill="none" stroke="#FFFFFF" stroke-width="2" stroke-linecap="round" stroke-linejoin="round" stroke-miterlimit="10" x1="525.64" y1="670.575" x2="525.64" y2="687.575"/>
</g>
<g id="Слой_3__x28_копия_x29_">
	<g>
		<image overflow="visible" width="147" height="501" xlink:href="E0461ED1.png"  transform="matrix(1 0 0 1 587.9355 458.1206)">
		</image>
		<g>
			<path fill="none" stroke="#FFFFFF" stroke-miterlimit="10" d="M599.64,468.825v445.5c0,0-1.5,16.5,7,25.5s22.5,7.5,22.5,7.5h95"
				/>
		</g>
	</g>
	<g>
		<image overflow="visible" width="22" height="465" xlink:href="E0461ED7.png"  transform="matrix(1 0 0 1 1333.9351 459.1206)">
		</image>
		<g>
			<line fill="none" stroke="#FFFFFF" stroke-miterlimit="10" x1="1344.64" y1="469.825" x2="1344.64" y2="912.825"/>
		</g>
	</g>
	<g>
		<image overflow="visible" width="233" height="174" xlink:href="E0461ED2.png"  transform="matrix(1 0 0 1 859.9355 747.1201)">
		</image>
		<g>
			<path fill="none" stroke="#FFFFFF" stroke-miterlimit="10" d="M870.64,758.325h199.5c0,0,4.97-0.474,7.994,2.988
				c2.923,3.346,2.506,7.512,2.506,7.512v141"/>
		</g>
	</g>
	<g>
		<image overflow="visible" width="214" height="57" xlink:href="E0461ED3.png"  transform="matrix(1 0 0 1 844.9355 667.1201)">
		</image>
		<g>
			<path fill="none" stroke="#FFFFFF" stroke-miterlimit="10" d="M1046.807,681.326c0,0-0.167-2.834-4.167-2.834
				s-179.663,0-182.663,0c-4.333,0-4.333,3.834-4.333,3.834v30.336"/>
		</g>
	</g>
	<g>
		<image overflow="visible" width="55" height="55" xlink:href="E0461EDE.png"  transform="matrix(1 0 0 1 748.9355 590.1201)">
		</image>
		<g>
			<path fill="none" stroke="#FFFFFF" stroke-miterlimit="10" d="M759.978,633.657h28.667c0,0,3.668,0,3.667-4.166
				c-0.001-3.834,0-24.834,0-24.834s0.166-3.666-3.667-3.666"/>
		</g>
	</g>
	<g>
		<image overflow="visible" width="58" height="51" xlink:href="E0461EDF.png"  transform="matrix(1 0 0 1 774.9355 551.1201)">
		</image>
		<g>
			<path fill="none" stroke="#FFFFFF" stroke-miterlimit="10" d="M786.311,590.495v-23.834c0,0-0.833-4.166,3.667-4.166
				s28.333,0,28.333,0s3.167-0.168,3.167,3.666"/>
		</g>
	</g>
	<g>
		<image overflow="visible" width="53" height="26" xlink:href="E0461ED4.png"  transform="matrix(1 0 0 1 785.9355 619.1201)">
		</image>
		<g>
			<path fill="none" stroke="#FFFFFF" stroke-miterlimit="10" d="M797.311,629.995c0,0,0,3.664,3.667,3.662
				c2.333-0.001,26.833,0,26.833,0"/>
		</g>
	</g>
	<g>
		<image overflow="visible" width="58" height="55" xlink:href="6A22744A.png"  transform="matrix(1 0 0 1 824.9355 590.1201)">
		</image>
		<g>
			<path fill="none" stroke="#FFFFFF" stroke-miterlimit="10" d="M835.978,604.495c0,0,0-3.505,5.167-3.504
				c4.667,0.001,26.333,0,26.333,0s4-0.162,4,3.504s0,25.5,0,25.5s0.203,3.662-3.333,3.662"/>
		</g>
	</g>
	<g>
		<image overflow="visible" width="338" height="63" xlink:href="6A22744D.png"  transform="matrix(1 0 0 1 529.9355 216.1206)">
		</image>
		<g>
			<path fill="none" stroke="#FFFFFF" stroke-miterlimit="10" d="M856.474,226.992H557.14c0,0-8.946-0.522-13.75,5.667
				c-4.333,5.583-0.675,15.832-0.675,15.832l6.425,19.5"/>
		</g>
	</g>
	<g>
		<image overflow="visible" width="639" height="38" xlink:href="6A22744E.png"  transform="matrix(1 0 0 1 743.9355 234.1206)">
		</image>
		<g>
			<polyline fill="none" stroke="#FFFFFF" stroke-miterlimit="10" points="754.141,245.486 1370.808,245.486 1367.141,260.992 			
				"/>
		</g>
	</g>
	<g>
		<image overflow="visible" width="267" height="23" xlink:href="6A22744C.png"  transform="matrix(1 0 0 1 1063.9351 411.1206)">
		</image>
		<g>
			<line fill="none" stroke="#FFFFFF" stroke-miterlimit="10" x1="1074.14" y1="422.325" x2="1320.14" y2="422.325"/>
		</g>
	</g>
	<g>
		<image overflow="visible" width="204" height="204" xlink:href="6A22744B.png"  transform="matrix(1 0 0 1 1437.9351 375.1206)">
		</image>
		<g>
			<path fill="none" stroke="#FFFFFF" stroke-miterlimit="10" d="M1630.171,476.48c0,49.982-40.518,90.5-90.5,90.5
				c-49.981,0-90.5-40.518-90.5-90.5s40.519-90.5,90.5-90.5c4.465,0,8.854,0.324,13.145,0.948"/>
		</g>
	</g>
	<g>
		<image overflow="visible" width="188" height="23" xlink:href="6A227455.png"  transform="matrix(1 0 0 1 226.9355 608.1201)">
		</image>
		<g>
			<line fill="none" stroke="#FFFFFF" stroke-miterlimit="10" x1="237.14" y1="619.325" x2="403.474" y2="619.325"/>
		</g>
	</g>
	<g>
		<image overflow="visible" width="23" height="128" xlink:href="6A227456.png"  transform="matrix(1 0 0 1 416.9355 625.1201)">
		</image>
		<g>
			<line fill="none" stroke="#FFFFFF" stroke-miterlimit="10" x1="427.807" y1="635.992" x2="427.807" y2="741.992"/>
		</g>
	</g>
	<g>
		<image overflow="visible" width="59" height="46" xlink:href="6A227454.png"  transform="matrix(1 0 0 1 169.9355 901.1201)">
		</image>
		<g>
			<path fill="none" stroke="#FFFFFF" stroke-miterlimit="10" d="M181.474,911.325v19.334c0,0,0,5,2.333,5s34.333,0,34.333,0"/>
		</g>
	</g>
	<g>
		<image overflow="visible" width="28" height="34" xlink:href="6A22745A.png"  transform="matrix(1 0 0 1 188.9355 759.1201)">
		</image>
		<g>
			<polyline fill="none" stroke="#FFFFFF" stroke-miterlimit="10" points="199.807,770.326 205.14,770.326 205.14,781.659 			"/>
		</g>
	</g>
	<g>
		<image overflow="visible" width="28" height="34" xlink:href="6A22745D.png"  transform="matrix(1 0 0 1 188.9355 684.1201)">
		</image>
		<g>
			<polyline fill="none" stroke="#FFFFFF" stroke-miterlimit="10" points="199.807,705.991 205.14,705.991 205.14,695.324 			"/>
		</g>
	</g>
	<g>
		<image overflow="visible" width="35" height="292" xlink:href="6A227471.png"  transform="matrix(1 0 0 1 497.9355 635.1201)">
		</image>
		<g>
			<path fill="none" stroke="#FFFFFF" stroke-miterlimit="10" d="M521.474,645.991h-7.333v17.333l-3.333,5.333v30.667
				c0,0-1.667,2.333-1.667,5s2,4.333,2,4.333v190l4.167,6v4.667l1.333,1.501v4.5h3.75"/>
		</g>
	</g>
	<g>
		<image overflow="visible" width="22" height="39" xlink:href="6A227473.png"  transform="matrix(1 0 0 1 514.9355 660.1201)">
		</image>
		<g>
			<line fill="none" stroke="#FFFFFF" stroke-miterlimit="10" x1="525.64" y1="670.575" x2="525.64" y2="687.575"/>
		</g>
	</g>
</g>
</svg>
